# xmcd CD database file
#
# Track frame offsets:
#	151
#	18123
#	32859
#	43777
#	54507
#	63921
#	76351
#	106030
#	123988
#	144606
#	156279
#
# Disc length: 2170 seconds
#
# Revision: 0
# Processed by: cddbd v1.5.2PL0 Copyright (c) Steve Scherf et al.
# Submitted via: Feurio! 1.68 - http://www.feurio.com
#
DISCID=8908780b
DTITLE=John Fahey - Blind Joe Death Volume 1
DYEAR=1900
DGENRE=
TTITLE0=On doing an evil deed blues
TTITLE1=St. Louis blues
TTITLE2=Poor boy long ways from home
TTITLE3=Uncloudy day
TTITLE4=John Henry
TTITLE5=In christ there is no east or west
TTITLE6=The transcendental waterfall
TTITLE7=Desperate man blues
TTITLE8=Sun gonna shine in my backdoor someday blues
TTITLE9=Sligo river blues
TTITLE10=I'm gonna do all I can for my Lord
EXTD=
EXTT0=
EXTT1=
EXTT2=
EXTT3=
EXTT4=
EXTT5=
EXTT6=
EXTT7=
EXTT8=
EXTT9=
EXTT10=
PLAYORDER=
